<svg width="256" height="256" viewBox="0 0 256 256" fill="none" xmlns="http://www.w3.org/2000/svg">
<rect width="256" height="256" rx="56" fill="url(#paint0_linear_7_276)"/>
<path d="M195.034 159.318C194.286 157.505 193.536 155.54 192.788 153.876C191.589 151.157 190.39 148.585 189.344 146.168L189.195 146.017C178.86 123.343 167.78 100.37 156.098 77.6997L155.649 76.7907C154.42 74.4389 153.223 72.0705 152.057 69.6863C150.558 66.9638 149.062 64.0949 146.665 61.3724C141.873 55.3265 134.984 52 127.647 52C120.158 52 113.42 55.3265 108.48 61.0689C106.233 63.7884 104.584 66.6603 103.088 69.3828C101.92 71.7655 100.722 74.1338 99.4964 76.4872L99.0461 77.3962C87.5145 100.067 76.2837 123.041 65.9505 145.713L65.7994 146.014C64.7522 148.436 63.5524 151.004 62.354 153.722C61.606 155.386 60.858 157.2 60.11 159.164C58.1621 164.755 57.5622 170.046 58.3132 175.49C59.9603 186.827 67.4466 196.346 77.7812 200.581C81.6755 202.245 85.7193 203 89.9112 203C91.1095 203 92.6056 202.849 93.8054 202.697C98.7484 202.093 103.839 200.432 108.782 197.56C114.922 194.082 120.763 189.096 127.351 181.841C133.94 189.096 139.93 194.082 145.92 197.56C150.865 200.432 155.954 202.093 160.896 202.697C162.094 202.851 163.593 203 164.791 203C168.985 203 173.177 202.245 176.92 200.581C187.404 196.346 194.741 186.676 196.389 175.49C197.579 170.2 196.98 164.913 195.034 159.318ZM127.496 167.177C119.409 156.899 114.167 147.226 112.371 139.066C111.623 135.589 111.472 132.566 111.923 129.845C112.22 127.426 113.121 125.309 114.319 123.496C117.165 119.417 121.957 116.846 127.498 116.846C133.041 116.846 137.982 119.265 140.678 123.496C141.876 125.309 142.774 127.428 143.076 129.845C143.524 132.567 143.374 135.74 142.626 139.066C140.823 147.075 135.581 156.75 127.496 167.177ZM187.245 174.282C186.198 182.141 180.956 188.945 173.619 191.968C170.026 193.478 166.13 193.933 162.239 193.478C158.496 193.024 154.75 191.814 150.859 189.549C145.467 186.523 140.077 181.841 133.786 174.886C143.669 162.645 149.659 151.457 151.906 141.484C152.955 136.797 153.106 132.566 152.654 128.634C152.057 124.856 150.708 121.379 148.612 118.356C143.966 111.552 136.178 107.624 127.495 107.624C118.812 107.624 111.023 111.706 106.381 118.356C104.285 121.379 102.936 124.856 102.337 128.634C101.739 132.566 101.887 136.948 103.085 141.484C105.331 151.457 111.471 162.794 121.204 175.037C115.064 181.99 109.523 186.677 104.131 189.7C100.237 191.968 96.4953 193.178 92.7522 193.629C88.7099 194.084 84.8142 193.478 81.3703 192.119C74.0337 189.096 68.7915 182.292 67.7443 174.433C67.2955 170.655 67.5932 166.877 69.0922 162.645C69.5395 161.132 70.2906 159.622 71.0386 157.808C72.0873 155.389 73.2827 152.818 74.4825 150.249L74.6336 149.949C84.9653 127.426 96.0465 104.452 107.578 82.0831L108.027 81.1741C109.227 78.9092 110.425 76.4902 111.622 74.2222C112.82 71.8033 114.167 69.5353 115.815 67.5693C118.96 63.9454 123.152 61.9779 127.796 61.9779C132.439 61.9779 136.631 63.9454 139.776 67.5693C141.425 69.5398 142.771 71.8078 143.969 74.2222C145.169 76.4902 146.368 78.9092 147.563 81.1741L148.013 82.0831C159.369 104.545 170.303 127.221 180.809 150.1V150.251C182.009 152.673 183.057 155.391 184.255 157.813C185.003 159.623 185.752 161.133 186.201 162.646C187.397 166.572 187.845 170.353 187.245 174.282Z" fill="white"/>
<defs>
<linearGradient id="paint0_linear_7_276" x1="128" y1="0" x2="128" y2="256" gradientUnits="userSpaceOnUse">
<stop stop-color="#EF786F"/>
<stop offset="1" stop-color="#D8595E"/>
</linearGradient>
</defs>
</svg>
