<svg width="91" height="85" viewBox="0 0 91 85" fill="none" xmlns="http://www.w3.org/2000/svg">
<path d="M80.6371 10.3309L21.9619 0.155026C15.4992 -0.958401 9.22609 3.84766 7.95689 10.8947L0.224968 54.0646C-1.04424 61.0975 3.18643 67.7358 9.64916 68.8633L14.2446 69.6667L12.3189 80.956C12.0563 82.464 12.9608 83.8593 14.3467 84.0989C14.8865 84.1976 15.47 84.0989 15.9806 83.7889L34.333 73.1338L68.3243 79.0251C74.7871 80.1385 81.0602 75.3325 82.3294 68.2855L90.0613 25.1155C91.3305 18.0826 87.0998 11.4443 80.6371 10.3168V10.3309Z" fill="white"/>
<path d="M46.1642 27.7089C46.0329 27.3847 49.6655 24.9605 50.0302 24.735C54.2755 22.1135 59.1626 21.8176 63.2766 23.9458C65.7275 25.1156 67.2885 27.8357 67.3176 30.9928C67.2593 36.3767 62.6201 41.4223 58.9438 44.3116C55.676 46.8767 52.1018 48.8076 48.9944 51.6405C46.6894 53.5291 44.6178 55.7982 42.8672 58.3633C42.4733 59.0821 41.9773 59.7304 41.3938 60.266C40.3288 61.0835 38.7095 60.0405 38.053 59.1385C37.1923 57.9546 37.1485 55.9814 36.6087 54.5579C36.0398 53.1204 35.3103 51.7955 34.4496 50.5975C30.8171 45.2559 23.9605 41.9156 24.5294 33.8116C24.7774 26.1585 28.7017 19.6894 35.7334 19.182C40.5185 18.8719 44.2531 23.1988 46.1496 27.723L46.1642 27.7089ZM41.277 51.9787C45.9892 44.7767 54.1733 42.9727 59.7024 36.9122C60.9716 35.5169 62.7222 33.2337 62.197 31.1337C61.6718 29.0055 59.0897 28.0753 57.3537 27.8921C54.7131 27.737 52.0434 28.7659 49.8989 30.7814C48.4109 32.0921 47.3605 33.8398 45.7703 35.0096C45.2306 35.4747 44.5595 35.6579 43.9468 35.4888C42.4587 35.1646 41.919 33.727 41.5834 32.1626C41.0728 30.2035 40.358 28.3431 39.4535 26.6236C37.6737 23.4384 33.9098 24.3545 31.6632 26.9619C29.3874 29.5975 28.6434 33.4592 29.7959 36.6586C30.394 38.0257 31.2255 39.2237 32.2467 40.1961C33.9974 41.9015 35.6605 43.7056 37.236 45.6223C38.0238 46.5948 38.7532 47.6378 39.4243 48.723C40.0808 49.7801 40.533 51.0063 41.277 51.9787Z" fill="#63777B"/>
</svg>
